<?xml version="1.0" encoding="UTF-8" standalone="no"?>
<svg width="35px" height="22px" viewBox="0 0 35 22" version="1.1" xmlns="http://www.w3.org/2000/svg" xmlns:xlink="http://www.w3.org/1999/xlink" xmlns:sketch="http://www.bohemiancoding.com/sketch/ns">
    <!-- Generator: Sketch 3.0.1 (7597) - http://www.bohemiancoding.com/sketch -->
    <title>Behance</title>
    <description>Created with Sketch.</description>
    <defs>
        <path d="M444.506,933.327 C444.958,933.327 445.389,933.286 445.794,933.195 C446.206,933.106 446.57,932.963 446.878,932.752 C447.185,932.55 447.441,932.272 447.626,931.92 C447.811,931.569 447.901,931.115 447.901,930.566 C447.901,929.49 447.597,928.725 446.995,928.261 C446.392,927.804 445.586,927.576 444.597,927.576 L439.599,927.576 L439.599,933.327 L444.506,933.327 L444.506,933.327 Z M444.251,924.437 C445.066,924.437 445.74,924.244 446.275,923.852 C446.803,923.466 447.061,922.827 447.061,921.952 C447.061,921.467 446.975,921.065 446.803,920.753 C446.625,920.442 446.392,920.198 446.095,920.027 C445.801,919.849 445.467,919.726 445.083,919.66 C444.703,919.586 444.307,919.557 443.9,919.557 L439.599,919.557 L439.599,924.437 L444.251,924.437 L444.251,924.437 Z M444.845,916 C445.845,916 446.746,916.086 447.572,916.264 C448.39,916.439 449.088,916.729 449.679,917.126 C450.262,917.524 450.716,918.053 451.043,918.719 C451.362,919.375 451.52,920.198 451.52,921.169 C451.52,922.221 451.281,923.099 450.805,923.801 C450.324,924.502 449.616,925.077 448.675,925.523 C449.958,925.892 450.911,926.543 451.542,927.468 C452.176,928.399 452.487,929.514 452.487,930.82 C452.487,931.879 452.283,932.791 451.878,933.557 C451.471,934.334 450.913,934.963 450.227,935.449 C449.534,935.938 448.741,936.298 447.852,936.532 C446.972,936.765 446.058,936.883 445.122,936.883 L435,936.883 L435,916 L444.845,916 L444.845,916 Z M463.97,925.978 C463.477,925.432 462.641,925.137 461.62,925.137 C460.957,925.137 460.407,925.248 459.969,925.476 C459.538,925.701 459.186,925.98 458.916,926.309 C458.647,926.643 458.466,926.997 458.359,927.374 C458.253,927.743 458.188,928.076 458.171,928.371 L464.927,928.371 C464.827,927.312 464.466,926.529 463.97,925.978 L463.97,925.978 Z M459.197,933.923 C459.82,934.531 460.72,934.836 461.885,934.836 C462.722,934.836 463.445,934.624 464.053,934.202 C464.654,933.781 465.021,933.329 465.163,932.862 L468.82,932.862 C468.231,934.681 467.341,935.981 466.124,936.764 C464.921,937.549 463.455,937.94 461.745,937.94 C460.554,937.94 459.482,937.748 458.521,937.368 C457.559,936.983 456.754,936.444 456.078,935.742 C455.419,935.036 454.907,934.202 454.543,933.222 C454.182,932.248 454,931.168 454,929.999 C454,928.868 454.188,927.813 454.559,926.836 C454.935,925.857 455.457,925.011 456.142,924.302 C456.829,923.59 457.643,923.027 458.592,922.616 C459.54,922.207 460.587,922 461.745,922 C463.024,922 464.146,922.247 465.105,922.749 C466.062,923.243 466.848,923.913 467.464,924.752 C468.08,925.59 468.519,926.547 468.791,927.622 C469.064,928.695 469.16,929.815 469.082,930.989 L458.171,930.989 C458.171,932.184 458.573,933.315 459.197,933.923 L459.197,933.923 Z M457,918 L465.464,918 L465.464,920.06 L457,920.06 L457,918 Z" id="path-1"></path>
    </defs>
    <g id="Page-1" stroke="none" stroke-width="1" fill="none" fill-rule="evenodd" sketch:type="MSPage">
        <g id="Desktop" sketch:type="MSArtboardGroup" transform="translate(-435.000000, -916.000000)" opacity="0.110307836">
            <g id="Behance">
                <use fill="#CCCCCC" fill-rule="evenodd" sketch:type="MSShapeGroup" xlink:href="#path-1"></use>
                <use fill="none" xlink:href="#path-1"></use>
            </g>
        </g>
    </g>
</svg>