<?xml version="1.0" encoding="UTF-8" standalone="no"?>
<svg width="27px" height="27px" viewBox="0 0 27 27" version="1.1" xmlns="http://www.w3.org/2000/svg" xmlns:xlink="http://www.w3.org/1999/xlink" xmlns:sketch="http://www.bohemiancoding.com/sketch/ns">
    <!-- Generator: Sketch 3.0.1 (7597) - http://www.bohemiancoding.com/sketch -->
    <title>Dribbble</title>
    <description>Created with Sketch.</description>
    <defs>
        <path d="M581.72449,930.217193 C581.546471,931.086 581.282798,931.938955 580.93738,932.754343 C580.599889,933.555306 580.181287,934.327156 579.692144,935.046961 C579.210293,935.762222 578.655205,936.433257 578.045427,937.044957 C577.434328,937.654014 576.761935,938.208332 576.048008,938.692905 C575.326843,939.179326 574.554951,939.597905 573.754631,939.937438 C572.939198,940.281516 572.085457,940.545175 571.21861,940.723132 C570.328726,940.906425 569.413689,941 568.499392,941 C567.584409,941 566.669425,940.906425 565.780808,940.723132 C564.912641,940.545175 564.058952,940.281516 563.244154,939.937438 C562.443886,939.597905 561.671255,939.179326 560.950089,938.692905 C560.236163,938.208385 559.56377,937.654014 558.953992,937.044957 C558.34358,936.433257 557.788492,935.762222 557.305954,935.046961 C556.819452,934.327156 556.400164,933.555253 556.061352,932.754343 C555.715881,931.938955 555.451574,931.085947 555.27292,930.217193 C555.092312,929.327252 555,928.414273 555,927.500026 C555,926.585093 555.092259,925.670159 555.272973,924.782173 C555.451627,923.913366 555.715934,923.05909 556.061404,922.245023 C556.400217,921.443479 556.819505,920.670942 557.306006,919.951084 C557.788545,919.235242 558.343633,918.565474 558.954045,917.953088 C559.563822,917.343978 560.236216,916.790981 560.950142,916.307148 C561.671307,915.818666 562.443939,915.40014 563.244207,915.059972 C564.059005,914.715155 564.912641,914.450862 565.780861,914.274226 C566.669478,914.092307 567.584461,914 568.499445,914 C569.413742,914 570.328726,914.092307 571.218663,914.274226 C572.085509,914.450915 572.939198,914.715208 573.754684,915.059972 C574.554951,915.400087 575.326896,915.818666 576.048061,916.307148 C576.761987,916.790981 577.434434,917.343978 578.04548,917.953088 C578.655258,918.565474 579.210346,919.235242 579.692197,919.951084 C580.181287,920.670942 580.599889,921.443531 580.93738,922.245023 C581.282798,923.05909 581.546471,923.913366 581.72449,924.782173 C581.907054,925.670159 582,926.585093 582,927.500026 C582,928.414273 581.907054,929.327252 581.72449,930.217193 Z M557.217552,925.123027 C557.521489,925.125669 562.325841,925.186326 567.861239,923.715648 C565.865829,920.170571 563.733931,917.277508 563.580324,917.072446 C560.365305,918.590572 557.965771,921.552905 557.217552,925.123027 Z M556.979611,927.132225 C556.976283,927.256129 556.970364,927.37607 556.970364,927.500026 C556.970364,930.461672 558.087727,933.161667 559.924299,935.203201 C559.920336,935.197231 563.075382,929.600157 569.297018,927.588371 C569.447296,927.538281 569.600269,927.493422 569.751868,927.449936 C569.462514,926.794752 569.146687,926.138193 568.816435,925.490882 C562.880242,927.267964 557.183945,927.140098 556.979611,927.132225 Z M568.499392,915.972317 C567.562638,915.972317 566.653573,916.085706 565.782763,916.295313 C565.955446,916.527375 568.121002,919.400042 570.092688,923.020202 C574.442877,921.389426 576.084944,918.889791 576.113319,918.847627 C574.083562,917.057916 571.4184,915.972317 568.499392,915.972317 Z M570.461197,929.385267 C563.658881,931.756526 561.437493,936.535292 561.413459,936.587458 C563.370706,938.109473 565.825617,939.027736 568.499392,939.027736 C570.095964,939.027736 571.616763,938.70268 573.00044,938.114123 C572.829713,937.106882 572.159961,933.576335 570.537657,929.360222 C570.511976,929.368729 570.486296,929.376074 570.461197,929.385267 Z M579.882,929.327199 C579.644694,929.250743 576.419159,928.229659 572.697876,928.826247 C574.210115,932.981755 574.824543,936.365995 574.941901,937.060755 C577.530603,935.313949 579.369131,932.54014 579.882,929.327199 Z M571.74601,926.409725 C571.831083,926.611459 571.914148,926.809229 571.995205,927.006947 C575.955749,926.508584 579.85764,927.347062 580.024457,927.381301 C579.99809,924.648388 579.020437,922.140193 577.402783,920.176542 C577.381012,920.207452 575.531917,922.879125 570.980036,924.738053 C571.24762,925.287827 571.506749,925.847376 571.74601,926.409725 Z" id="path-1"></path>
    </defs>
    <g id="Page-1" stroke="none" stroke-width="1" fill="none" fill-rule="evenodd" sketch:type="MSPage">
        <g id="Desktop" sketch:type="MSArtboardGroup" transform="translate(-555.000000, -914.000000)" opacity="0.110307836">
            <g id="Dribbble">
                <use fill="#CCCCCC" fill-rule="evenodd" sketch:type="MSShapeGroup" xlink:href="#path-1"></use>
                <use fill="none" xlink:href="#path-1"></use>
            </g>
        </g>
    </g>
</svg>