<?xml version="1.0" encoding="utf-8"?>
<!-- Generator: Adobe Illustrator 17.0.0, SVG Export Plug-In . SVG Version: 6.00 Build 0)  -->
<!DOCTYPE svg PUBLIC "-//W3C//DTD SVG 1.1//EN" "http://www.w3.org/Graphics/SVG/1.1/DTD/svg11.dtd">
<svg version="1.1" id="Layer_1" xmlns="http://www.w3.org/2000/svg" xmlns:xlink="http://www.w3.org/1999/xlink" x="0px" y="0px"
	 width="40px" height="40px" viewBox="0 0 40 40" style="enable-background:new 0 0 40 40;" xml:space="preserve">
<style type="text/css">
	.st0{fill-rule:evenodd;clip-rule:evenodd;fill:#E76A4D;}
</style>
<g>
	<g>
		<path class="st0" d="M20,0C8.954,0,0,8.954,0,20c0,11.046,8.954,20,20,20s20-8.954,20-20C40,8.954,31.046,0,20,0z M26,11.977
			l-2.173-0.001c-1.704,0-2.022,0.842-2.022,2.078v2.727h4.052l-0.529,4.254h-3.522V32h-4.248V21.035H14v-4.254h3.558v-3.15
			C17.558,9.979,19.701,8,22.834,8c1.5,0,2.79,0.106,3.166,0.158V11.977z"/>
	</g>
</g>
</svg>
