<?xml version="1.0" encoding="utf-8"?>
<!-- Generator: Adobe Illustrator 17.0.0, SVG Export Plug-In . SVG Version: 6.00 Build 0)  -->
<!DOCTYPE svg PUBLIC "-//W3C//DTD SVG 1.1//EN" "http://www.w3.org/Graphics/SVG/1.1/DTD/svg11.dtd">
<svg version="1.1" id="Layer_1" xmlns="http://www.w3.org/2000/svg" xmlns:xlink="http://www.w3.org/1999/xlink" x="0px" y="0px"
	 width="40px" height="40px" viewBox="0 0 40 40" style="enable-background:new 0 0 40 40;" xml:space="preserve">
<style type="text/css">
	.st0{fill-rule:evenodd;clip-rule:evenodd;fill:#E4CAB7;}
</style>
<g>
	<g>
		<path class="st0" d="M20,0C8.954,0,0,8.954,0,20c0,11.046,8.954,20,20,20s20-8.954,20-20C40,8.954,31.046,0,20,0z M20,33
			c-1.28,0-2.515-0.188-3.684-0.533c0.493-0.781,1.033-1.782,1.309-2.785c0.16-0.578,0.915-3.574,0.915-3.574
			c0.452,0.862,1.772,1.62,3.176,1.62c4.179,0,7.015-3.81,7.015-8.909c0-3.855-3.267-7.447-8.23-7.447
			c-6.177,0-9.291,4.428-9.291,8.121c0,2.236,0.846,4.225,2.662,4.966c0.298,0.122,0.564,0.004,0.651-0.325
			c0.059-0.228,0.203-0.804,0.265-1.043c0.087-0.326,0.054-0.44-0.187-0.724c-0.523-0.618-0.857-1.417-0.857-2.55
			c0-3.285,2.457-6.226,6.4-6.226c3.49,0,5.409,2.133,5.409,4.982c0,3.748-1.659,6.911-4.122,6.911
			c-1.361,0-2.378-1.125-2.052-2.504c0.39-1.647,1.148-3.425,1.148-4.613c0-1.064-0.571-1.952-1.754-1.952
			c-1.391,0-2.507,1.439-2.507,3.365c0,1.227,0.415,2.057,0.415,2.057s-1.423,6.028-1.673,7.084
			c-0.233,0.988-0.263,2.077-0.226,2.985C10.201,29.896,7,25.323,7,20c0-7.18,5.821-13,13-13c7.179,0,13,5.82,13,13
			C33,27.18,27.179,33,20,33z"/>
	</g>
</g>
</svg>
