<?xml version="1.0" encoding="utf-8"?>
<!-- Generator: Adobe Illustrator 17.0.0, SVG Export Plug-In . SVG Version: 6.00 Build 0)  -->
<!DOCTYPE svg PUBLIC "-//W3C//DTD SVG 1.1//EN" "http://www.w3.org/Graphics/SVG/1.1/DTD/svg11.dtd">
<svg version="1.1" id="Layer_1" xmlns="http://www.w3.org/2000/svg" xmlns:xlink="http://www.w3.org/1999/xlink" x="0px" y="0px"
	 width="40px" height="40px" viewBox="0 0 40 40" style="enable-background:new 0 0 40 40;" xml:space="preserve">
<style type="text/css">
	.st0{fill-rule:evenodd;clip-rule:evenodd;fill:#E4CAB7;}
</style>
<g>
	<g>
		<path class="st0" d="M20,0C8.954,0,0,8.954,0,20c0,11.046,8.954,20,20,20s20-8.954,20-20C40,8.954,31.046,0,20,0z M29.748,15.483
			c0.009,0.195,0.013,0.391,0.013,0.588c0,6.005-4.54,12.929-12.842,12.929c-2.549,0-4.921-0.752-6.919-2.042
			c0.353,0.042,0.712,0.064,1.077,0.064c2.115,0,4.061-0.726,5.606-1.945c-1.975-0.037-3.642-1.351-4.216-3.156
			c0.276,0.053,0.558,0.081,0.849,0.081c0.412,0,0.81-0.056,1.189-0.159c-2.065-0.418-3.621-2.254-3.621-4.456
			c0-0.019,0-0.038,0-0.057c0.609,0.34,1.305,0.545,2.044,0.568c-1.211-0.815-2.008-2.206-2.008-3.782
			c0-0.833,0.223-1.613,0.611-2.284c2.226,2.749,5.552,4.558,9.303,4.748c-0.077-0.333-0.117-0.68-0.117-1.036
			c0-2.51,2.021-4.544,4.514-4.544c1.298,0,2.471,0.552,3.294,1.435c1.028-0.204,1.994-0.582,2.866-1.103
			c-0.337,1.061-1.053,1.952-1.984,2.514c0.913-0.11,1.783-0.354,2.592-0.716C31.395,14.042,30.63,14.842,29.748,15.483z"/>
	</g>
</g>
</svg>
