<?xml version="1.0" encoding="UTF-8" standalone="no"?>
<svg width="26px" height="23px" viewBox="0 0 26 23" version="1.1" xmlns="http://www.w3.org/2000/svg" xmlns:xlink="http://www.w3.org/1999/xlink" xmlns:sketch="http://www.bohemiancoding.com/sketch/ns">
    <!-- Generator: Sketch 3.0.1 (7597) - http://www.bohemiancoding.com/sketch -->
    <title>Twitter</title>
    <description>Created with Sketch.</description>
    <defs>
        <path id="path-1" d="M511.624484,922.11836 L511.680843,923.113175 L510.741521,922.991361 C507.32239,922.524407 504.335347,920.940824 501.799179,918.281217 L500.559274,916.961565 L500.239905,917.936077 C499.563593,920.108428 499.995681,922.402593 501.404664,923.945571 C502.156121,924.79827 501.987043,924.920084 500.690779,924.412525 C500.239905,924.250106 499.84539,924.128292 499.807817,924.189199 C499.676312,924.331316 500.127186,926.178829 500.484128,926.909713 C500.972576,927.924831 501.968257,928.919645 503.05787,929.508413 L503.978405,929.975367 L502.888792,929.99567 C501.836751,929.99567 501.799179,930.015972 501.911897,930.442321 C502.287626,931.761974 503.771754,933.162835 505.42496,933.771906 L506.589719,934.198255 L505.575252,934.84793 C504.072337,935.781838 502.306412,936.309699 500.540488,936.350303 C499.695098,936.370606 499,936.451815 499,936.512722 C499,936.715745 501.291945,937.852677 502.625782,938.299328 C506.627292,939.618981 511.38026,939.050515 514.949682,936.796955 C517.485851,935.19307 520.02202,932.005602 521.205565,928.919645 C521.844304,927.275156 522.483042,924.270409 522.483042,922.828942 C522.483042,921.895034 522.539402,921.77322 523.591442,920.656591 C524.211394,920.006916 524.793774,919.296334 524.906492,919.093311 C525.094357,918.707566 525.07557,918.707566 524.117462,919.052706 C522.520615,919.661776 522.295178,919.580567 523.084208,918.666962 C523.666588,918.017287 524.361686,916.839751 524.361686,916.494611 C524.361686,916.433704 524.079889,916.535216 523.76052,916.717937 C523.422364,916.92096 522.670907,917.225495 522.107314,917.408216 L521.092846,917.753356 L520.172311,917.083379 C519.665077,916.717937 518.951193,916.31189 518.575464,916.190076 C517.617356,915.905843 516.152014,915.946448 515.287838,916.271285 C512.939534,917.18489 511.455406,919.539962 511.624484,922.11836 C511.624484,922.11836 511.455406,919.539962 511.624484,922.11836 L511.624484,922.11836 L511.624484,922.11836 Z"></path>
    </defs>
    <g id="Page-1" stroke="none" stroke-width="1" fill="none" fill-rule="evenodd" sketch:type="MSPage">
        <g id="Desktop" sketch:type="MSArtboardGroup" transform="translate(-499.000000, -916.000000)">
            <g id="Twitter">
                <use fill="#CCCCCC" sketch:type="MSShapeGroup" xlink:href="#path-1"></use>
                <use fill="#55ACEE" xlink:href="#path-1"></use>
            </g>
        </g>
    </g>
</svg>